HIERARCHY
ROOT reference
{
  OFFSET 0 0 0
  CHANNELS 6 Xposition Yposition Zposition Zrotation Xrotation Yrotation
  JOINT Hips
  {
    OFFSET 10.0328 97.7725 205.674
    CHANNELS 6 Xposition Yposition Zposition Zrotation Xrotation Yrotation
    JOINT Spine
    {
      OFFSET 0 8.22665 0
      CHANNELS 6 Xposition Yposition Zposition Zrotation Xrotation Yrotation
      JOINT Spine1
      {
        OFFSET 0 24.451 0
        CHANNELS 6 Xposition Yposition Zposition Zrotation Xrotation Yrotation
        JOINT Neck
        {
          OFFSET 0 24.3506 2.21369
          CHANNELS 6 Xposition Yposition Zposition Zrotation Xrotation Yrotation
          JOINT Head
          {
            OFFSET 0 14.0455 -2.0065
            CHANNELS 6 Xposition Yposition Zposition Zrotation Xrotation Yrotation
            End Site
            {
              OFFSET 0 25.0812 0
            }
          }
        }
        JOINT LeftShoulder
        {
          OFFSET 4.0594 22.2558 -0.272799
          CHANNELS 6 Xposition Yposition Zposition Zrotation Xrotation Yrotation
          JOINT LeftArm
          {
            OFFSET 12.0298 0 0
            CHANNELS 6 Xposition Yposition Zposition Zrotation Xrotation Yrotation
            JOINT LeftForeArm
            {
              OFFSET 31.2689 0 0
              CHANNELS 6 Xposition Yposition Zposition Zrotation Xrotation Yrotation
              JOINT LeftHand
              {
                OFFSET 28.0275 0 0
                CHANNELS 6 Xposition Yposition Zposition Zrotation Xrotation Yrotation
                End Site
                {
                  OFFSET 15.0487 0 0
                }
              }
            }
          }
        }
        JOINT RightShoulder
        {
          OFFSET -3.96464 22.2558 -0.272799
          CHANNELS 6 Xposition Yposition Zposition Zrotation Xrotation Yrotation
          JOINT RightArm
          {
            OFFSET -12.0298 0 0
            CHANNELS 6 Xposition Yposition Zposition Zrotation Xrotation Yrotation
            JOINT RightForeArm
            {
              OFFSET -31.2689 0 0
              CHANNELS 6 Xposition Yposition Zposition Zrotation Xrotation Yrotation
              JOINT RightHand
              {
                OFFSET -28.0275 0 0
                CHANNELS 6 Xposition Yposition Zposition Zrotation Xrotation Yrotation
                End Site
                {
                  OFFSET -15.0487 0 0
                }
              }
            }
          }
        }
      }
    }
    JOINT LeftUpLeg
    {
      OFFSET 10.0325 0 0
      CHANNELS 6 Xposition Yposition Zposition Zrotation Xrotation Yrotation
      JOINT LeftLeg
      {
        OFFSET 0 -38.4033 0
        CHANNELS 6 Xposition Yposition Zposition Zrotation Xrotation Yrotation
        JOINT LeftFoot
        {
          OFFSET 0 -44.1642 0
          CHANNELS 6 Xposition Yposition Zposition Zrotation Xrotation Yrotation
          JOINT LeftToeBase
          {
            OFFSET 0 -6.52112 15.0487
            CHANNELS 6 Xposition Yposition Zposition Zrotation Xrotation Yrotation
            End Site
            {
              OFFSET 0 0 4.013
            }
          }
        }
      }
    }
    JOINT RightUpLeg
    {
      OFFSET -10.0325 0 0
      CHANNELS 6 Xposition Yposition Zposition Zrotation Xrotation Yrotation
      JOINT RightLeg
      {
        OFFSET 0 -38.4033 0
        CHANNELS 6 Xposition Yposition Zposition Zrotation Xrotation Yrotation
        JOINT RightFoot
        {
          OFFSET 0 -44.1642 0
          CHANNELS 6 Xposition Yposition Zposition Zrotation Xrotation Yrotation
          JOINT RightToeBase
          {
            OFFSET 0 -6.52112 15.0487
            CHANNELS 6 Xposition Yposition Zposition Zrotation Xrotation Yrotation
            End Site
            {
              OFFSET 0 0 4.013
            }
          }
        }
      }
    }
  }
}
MOTION
Frames:	8
Frame Time:	0.004
0 0 0 0 0 -0 -11.1073 86.7718 -136.807 5.43044 -8.52841 -5.04463 1.77636e-015 8.22665 2.84217e-014 3.88773 1.80697 1.46778 3.55271e-015 24.451 1.42109e-014 -5.98176 12.7992 2.20066 0 24.3506 2.21369 -1.96091 26.9688 9.8543 3.55271e-015 14.0455 -2.0065 -42.1607 -10.3246 -0.010707 4.0594 22.2558 -0.272799 -1.0917 14.2335 -3.25387 12.0298 2.84217e-014 0 -68.0094 24.9316 -4.4399 31.2689 7.10543e-015 0 14.3512 -23.7546 -95.5028 28.0275 -7.10543e-015 0 35.8614 -1.38958 21.6122 -3.96464 22.2558 -0.272799 -3.04132 11.2904 7.84947 -12.0298 1.42109e-014 0 29.944 28.2008 28.7798 -31.2689 1.42109e-014 0 -15.8045 -24.4679 65.1566 -28.0275 0 -1.06581e-014 1.96926 -14.9224 -2.10758 10.0325 0 0 13.1938 -23.9033 13.7347 -7.10543e-015 -38.4033 0 -48.6968 72.866 34.4011 0 -44.1642 0 -3.33006 -4.79409 7.29064 0 -6.52112 15.0487 -4.77083e-015 -3.18055e-015 -0 -10.0325 -1.42109e-014 1.42109e-014 -2.03919 -1.10994 7.94965 -1.77636e-015 -38.4033 -1.42109e-014 0.349042 41.2541 3.22117 -1.77636e-015 -44.1642 0 1.69626 -16.1662 -15.2733 0 -6.52112 15.0487 -1.59028e-015 3.18055e-015 -3.18055e-015 
0 0 0 0 0 -0 -10.9237 87.1999 -136.445 5.79404 -8.61235 -5.08293 -1.77636e-015 8.22665 -2.84217e-014 3.84514 1.85345 1.67308 1.77636e-015 24.451 0 -6.4309 12.8014 2.45746 1.77636e-015 24.3506 2.21369 -2.25533 27.1862 9.74574 0 14.0455 -2.0065 -41.9718 -10.288 -0.099281 4.0594 22.2558 -0.272799 -1.12093 14.2359 -3.15491 12.0298 0 2.84217e-014 -67.8985 24.8128 -4.30662 31.2689 -7.10543e-015 0 14.2091 -23.7327 -95.977 28.0275 -7.10543e-015 0 35.6601 -1.4539 21.5594 -3.96464 22.2558 -0.272799 -3.28108 11.3421 7.83483 -12.0298 -1.42109e-014 -2.84217e-014 29.9688 27.9297 28.7939 -31.2689 0 0 -15.888 -24.7606 65.5727 -28.0275 0 1.42109e-014 1.97634 -15.1039 -2.30077 10.0325 -1.42109e-014 0 12.741 -24.039 13.5719 0 -38.4033 7.10543e-015 -47.3852 72.1507 32.9911 0 -44.1642 -1.42109e-014 -3.97918 -4.262 7.40175 7.10543e-015 -6.52112 15.0487 -3.18055e-015 6.36111e-015 1.59028e-015 -10.0325 1.42109e-014 -2.84217e-014 -2.51206 -0.935166 7.97489 -1.77636e-015 -38.4033 0 0.360661 41.2106 3.18212 0 -44.1642 2.84217e-014 1.84047 -15.1519 -15.6215 0 -6.52112 15.0487 1.19271e-015 3.18055e-015 1.59028e-015 
0 0 0 0 0 -0 -10.7557 87.6369 -136.101 6.09257 -8.64859 -5.12831 1.77636e-015 8.22665 0 3.85013 1.86792 1.88797 -1.77636e-015 24.451 0 -6.86974 12.802 2.72234 3.55271e-015 24.3506 2.21369 -2.42021 27.204 9.69721 0 14.0455 -2.0065 -41.8317 -9.88202 0.016095 4.0594 22.2558 -0.272799 -1.11888 14.2706 -3.07726 12.0298 2.84217e-014 0 -67.8369 24.7207 -4.25992 31.2689 0 2.84217e-014 14.1322 -23.7759 -96.3232 28.0275 0 0 35.3922 -1.58985 21.433 -3.96464 22.2558 -0.272799 -3.54823 11.1078 7.86138 -12.0298 -1.42109e-014 0 30.2565 27.7589 28.5498 -31.2689 0 0 -15.9899 -24.8792 65.9307 -28.0275 0 7.10543e-015 2.33524 -15.1018 -2.26119 10.0325 -1.42109e-014 -2.84217e-014 12.3495 -24.1747 13.3655 7.10543e-015 -38.4033 -7.10543e-015 -45.8711 71.2906 31.573 0 -44.1642 0 -4.44098 -3.65329 7.18589 0 -6.52112 15.0487 -3.18055e-015 3.18055e-015 -0 -10.0325 0 -1.42109e-014 -2.89048 -0.863244 7.90251 0 -38.4033 -1.42109e-014 0.291636 41.2036 3.06501 3.55271e-015 -44.1642 0 1.84973 -13.9399 -15.8119 -7.10543e-015 -6.52112 15.0487 -1.76556e-031 3.18055e-015 3.18055e-015 
0 0 0 0 0 -0 -10.5873 88.0809 -135.751 6.38923 -8.73061 -5.16016 -1.77636e-015 8.22665 1.42109e-014 3.85191 1.92584 2.09188 0 24.451 -2.84217e-014 -7.2882 12.8257 2.97688 3.55271e-015 24.3506 2.21369 -2.65631 27.3611 9.61711 0 14.0455 -2.0065 -41.7288 -9.73527 -0.018643 4.0594 22.2558 -0.272799 -1.14532 14.3549 -2.98597 12.0298 0 0 -67.6716 24.5724 -4.28255 31.2689 0 0 13.9498 -23.7519 -96.7076 28.0275 0 -1.42109e-014 34.9751 -1.79272 21.3131 -3.96464 22.2558 -0.272799 -3.83672 10.9767 7.85211 -12.0298 0 0 30.4548 27.569 28.419 -31.2689 0 0 -16.0311 -25.1065 66.3704 -28.0275 0 0 2.38176 -15.2361 -2.45219 10.0325 1.42109e-014 1.42109e-014 11.9455 -24.2697 13.1797 0 -38.4033 7.10543e-015 -44.4463 70.5231 30.0062 -1.77636e-015 -44.1642 1.42109e-014 -5.01925 -3.07492 7.25421 -7.10543e-015 -6.52112 15.0487 -3.18055e-015 0 -0 -10.0325 -1.42109e-014 1.42109e-014 -3.28152 -0.800873 7.68051 0 -38.4033 1.42109e-014 0.135814 41.2855 3.11692 0 -44.1642 0 1.8646 -12.6321 -15.9898 0 -6.52112 15.0487 8.82781e-032 -3.18055e-015 1.59028e-015 
0 0 0 0 0 -0 -10.4178 88.5299 -135.403 6.68083 -8.8097 -5.19876 1.77636e-015 8.22665 0 3.851 2.00362 2.28417 1.77636e-015 24.451 1.42109e-014 -7.72535 12.8218 3.22083 1.77636e-015 24.3506 2.21369 -2.82798 27.5647 9.48552 -3.55271e-015 14.0455 -2.0065 -41.6772 -9.64614 -0.136979 4.0594 22.2558 -0.272799 -1.16032 14.4259 -2.86938 12.0298 1.42109e-014 0 -67.5497 24.4864 -4.30758 31.2689 0 0 13.8179 -23.7375 -96.9783 28.0275 -1.42109e-014 -1.42109e-014 34.7717 -1.98496 21.0408 -3.96464 22.2558 -0.272799 -4.0408 10.8896 7.91807 -12.0298 2.84217e-014 0 30.578 27.3138 28.2478 -31.2689 0 0 -16.2247 -25.2705 66.6083 -28.0275 0 7.10543e-015 2.82626 -15.2425 -2.24521 10.0325 1.42109e-014 0 11.5228 -24.3746 13.0666 0 -38.4033 0 -42.8823 69.7262 28.5346 -1.77636e-015 -44.1642 0 -5.36265 -2.34482 7.10672 -7.10543e-015 -6.52112 15.0487 1.59028e-015 -3.18055e-015 3.18055e-015 -10.0325 1.42109e-014 0 -3.69061 -0.795063 7.38726 0 -38.4033 0 -0.00660715 41.4294 3.18656 0 -44.1642 0 1.77349 -11.3065 -16.2199 0 -6.52112 15.0487 -8.82781e-032 -3.18055e-015 -1.59028e-015 
0 0 0 0 0 -0 -10.254 88.9735 -135.06 6.93053 -8.8618 -5.24096 -1.77636e-015 8.22665 1.42109e-014 3.8926 2.07109 2.46555 -1.77636e-015 24.451 1.42109e-014 -8.16077 12.797 3.45263 0 24.3506 2.21369 -3.02651 27.7837 9.39615 0 14.0455 -2.0065 -41.6159 -9.57197 -0.217991 4.0594 22.2558 -0.272799 -1.20616 14.5421 -2.75441 12.0298 1.42109e-014 0 -67.367 24.3138 -4.35315 31.2689 0 -2.84217e-014 13.5556 -23.6455 -97.3249 28.0275 -7.10543e-015 -1.42109e-014 34.5718 -2.1795 20.9054 -3.96464 22.2558 -0.272799 -4.25209 10.9263 7.88477 -12.0298 0 2.84217e-014 30.5608 27.0556 28.3157 -31.2689 1.42109e-014 0 -16.1305 -25.5327 67.0244 -28.0275 1.42109e-014 7.10543e-015 2.52234 -15.5052 -2.69159 10.0325 -1.42109e-014 1.42109e-014 11.1573 -24.4701 12.9352 0 -38.4033 -7.10543e-015 -41.62 68.8426 27.5799 1.77636e-015 -44.1642 -1.42109e-014 -5.46884 -1.64177 7.08691 1.42109e-014 -6.52112 15.0487 -0 -3.18055e-015 -0 -10.0325 0 2.84217e-014 -4.07931 -0.855432 7.20817 -1.77636e-015 -38.4033 -1.42109e-014 0.0288559 41.5857 3.14819 3.55271e-015 -44.1642 0 1.75061 -9.90639 -16.4507 0 -6.52112 15.0487 7.95139e-016 6.36111e-015 -3.18055e-015 
0 0 0 0 0 -0 -10.1132 89.3974 -134.725 7.15818 -8.89505 -5.32221 -1.77636e-015 8.22665 -1.42109e-014 3.8658 2.08302 2.67722 1.77636e-015 24.451 0 -8.43107 12.8274 3.69694 -1.77636e-015 24.3506 2.21369 -3.3372 27.9963 9.30495 0 14.0455 -2.0065 -41.4933 -9.51332 -0.305022 4.0594 22.2558 -0.272799 -1.26875 14.6015 -2.73109 12.0298 -1.42109e-014 2.84217e-014 -67.287 24.2623 -4.37079 31.2689 7.10543e-015 0 13.4642 -23.7688 -97.4963 28.0275 0 0 34.2815 -2.44674 20.8616 -3.96464 22.2558 -0.272799 -4.63044 10.6947 7.91535 -12.0298 -1.42109e-014 0 30.8748 26.918 28.1383 -31.2689 1.42109e-014 2.84217e-014 -16.199 -25.693 67.2714 -28.0275 1.42109e-014 0 2.85938 -15.5877 -2.60047 10.0325 -1.42109e-014 -2.84217e-014 10.8518 -24.5384 12.873 0 -38.4033 -7.10543e-015 -40.2647 68.0105 26.0835 0 -44.1642 0 -5.93228 -1.03919 7.24701 0 -6.52112 15.0487 -1.59028e-015 6.36111e-015 1.59028e-015 -10.0325 0 0 -4.41021 -1.00066 6.86212 1.77636e-015 -38.4033 0 -0.125759 41.8166 2.95595 -1.77636e-015 -44.1642 0 1.48609 -8.30015 -16.2282 0 -6.52112 15.0487 1.59028e-015 0 -0 
0 0 0 0 0 -0 -9.94834 89.8375 -134.398 7.37497 -8.93634 -5.31567 -1.77636e-015 8.22665 -2.84217e-014 3.9106 2.17745 2.81196 8.88178e-016 24.451 1.42109e-014 -8.83327 12.8071 3.87963 -2.66454e-015 24.3506 2.21369 -3.52782 28.1213 9.23678 0 14.0455 -2.0065 -41.4132 -9.42103 -0.350195 4.0594 22.2558 -0.272799 -1.23587 14.6195 -2.51935 12.0298 -1.42109e-014 2.84217e-014 -67.2387 24.2102 -4.41874 31.2689 0 -2.84217e-014 13.1755 -23.6257 -97.7535 28.0275 1.42109e-014 1.42109e-014 34.1474 -2.64604 20.6774 -3.96464 22.2558 -0.272799 -4.88663 10.5042 7.9633 -12.0298 0 2.84217e-014 31.0013 26.8713 28.004 -31.2689 0 0 -16.4655 -25.9666 67.3595 -28.0275 0 -7.10543e-015 3.25923 -15.69 -2.40735 10.0325 1.42109e-014 1.42109e-014 10.448 -24.6512 12.6859 0 -38.4033 0 -38.8781 67.1119 24.8415 -1.77636e-015 -44.1642 1.42109e-014 -6.14683 -0.29634 7.45212 -7.10543e-015 -6.52112 15.0487 1.59028e-015 3.18055e-015 1.59028e-015 -10.0325 1.42109e-014 -1.42109e-014 -4.75656 -1.19535 6.17618 -1.77636e-015 -38.4033 0 -0.484473 42.0798 3.117 3.55271e-015 -44.1642 -2.84217e-014 1.31333 -6.66961 -16.0323 -7.10543e-015 -6.52112 15.0487 -8.82781e-032 -3.18055e-015 -1.59028e-015 
